# xmcd
#
# Track frame offsets: 
#        150
#        20896
#        42986
#        70364
#        89209
#        108825
#        127807
#        152240
#        173967
#        181785
#        204641
#        236316
#        263468
#        288821
#        317307
#
# Disc length: 4630 seconds
#
# Revision: 1
# Processed by: cddbd v1.5.1PL0 Copyright (c) Steve Scherf et al.
# Submitted via: ExactAudioCopy v0.90b3
#
DISCID=c712140f
DTITLE=Walter Trout - Deep Trout
DYEAR=2005
DGENRE=Blues
TTITLE0=How Much Do You Want
TTITLE1=To Begin Again
TTITLE2=Put It Right Back
TTITLE3=Under My Skin
TTITLE4=Victor The Cajun
TTITLE5=Kill The Monkey
TTITLE6=Running In Place
TTITLE7=Fast Moving Traffic
TTITLE8=Earrings On The Table
TTITLE9=Motivation Of Love
TTITLE10=If You Just Try
TTITLE11=Tribute To Muddy Waters
TTITLE12=Life In The Jungle
TTITLE13=Big Chain
TTITLE14=So Sad To Be Lonely
EXTD=YEAR: 2005
EXTT0=
EXTT1=
EXTT2=
EXTT3=
EXTT4=
EXTT5=
EXTT6=
EXTT7=
EXTT8=
EXTT9=
EXTT10=
EXTT11=
EXTT12=
EXTT13=
EXTT14=
PLAYORDER=
